<svg width="512" height="512" viewBox="0 0 512 512" xmlns="http://www.w3.org/2000/svg" xmlns:xlink="http://www.w3.org/1999/xlink" id="svg9" overflow="hidden"><defs id="defs13"><clipPath id="clipPath3423"><path d="M324.13-1.51298C321.435 0.267489 318.735 2.03658 316.046 3.82845 309.361 8.2818 302.621 10.7324 295.466 13.6211 294.715 13.9245 291.604 13.8487 291.057 14.5113 290.669 14.9805 290.709 15.8226 290.322 16.2918 289.755 16.9776 282.117 21.4334 280.767 22.5234 280.19 22.989 279.787 23.7104 279.297 24.3039 278.317 25.1942 277.396 26.1883 276.357 26.9746 273.133 29.4152 269.772 31.9897 266.802 34.9868 264.419 37.3924 262.507 40.5017 260.188 42.9989 256.973 46.46 253.857 48.5536 250.633 51.9013 248.139 54.4911 245.39 57.7417 243.283 60.8036 242.718 61.6256 242.484 62.7781 241.813 63.4744 240.729 64.6004 239.223 65.019 238.138 66.1451 237.468 66.8414 237.243 68.0034 236.669 68.8158 232.873 74.1788 229.255 79.3721 225.644 84.8401 223.997 87.3329 222.921 90.4003 221.234 92.8522 217.096 98.8676 213.095 104.557 210.209 111.547 208.802 114.957 208.06 114.493 205.8 117.779 204.535 119.618 201.713 125.435 200.655 127.571 200.256 128.376 200.468 129.579 199.92 130.242 199.573 130.662 198.796 129.823 198.45 130.242 197.354 131.569 197.777 133.974 196.98 135.584 195.042 139.495 192.529 142.829 191.1 147.157 187.692 157.478 191.604 146.494 190.365 152.498 189.952 154.502 188.443 157.015 188.16 158.73 187.454 163.006 187.185 167.003 186.69 171.193 186.417 173.507 184.817 175.904 184.485 178.315 183.414 186.102 181.001 193.613 180.076 201.461 179.836 203.493 180.354 205.67 180.076 207.693 179.859 209.264 178.822 211.463 178.606 213.034 178.089 216.788 179.05 220.839 178.606 224.607 178.353 226.746 177.333 228.692 177.136 230.839 176.865 233.788 177.587 236.825 177.136 239.741 176.697 242.578 169.917 275.667 171.991 280.692 172.703 282.418 173.951 284.85 174.196 286.924 175.068 294.323 173.711 301.793 174.931 309.18 175.772 314.277 174.457 320.035 174.931 325.204 175.557 332.034 175.885 338.813 176.401 345.68 176.833 351.434 175.641 359.835 177.136 365.265 177.213 365.546 177.793 364.983 177.871 365.265 178.103 366.109 177.767 367.054 177.871 367.936 178.263 371.261 179.721 376.431 180.811 379.509 181.159 380.492 182.038 381.151 182.281 382.179 182.55 383.321 181.971 384.614 182.281 385.74 183.599 390.532 186.853 394.343 188.16 399.094 188.393 399.939 187.982 400.901 188.16 401.765 188.426 403.052 189.329 404.05 189.63 405.326 190.887 410.656 191.988 416.034 193.305 421.35 194.692 426.949 196.999 432.1 198.45 437.374 199.5 441.191 204.521 446.021 206.535 448.947 207.236 449.967 207.347 451.447 208.005 452.508 209.683 455.218 211.446 457.769 213.149 460.52 218.578 469.287 226.074 476.175 232.259 483.667 234.986 486.97 237.041 491.682 240.343 494.349 240.751 494.679 241.393 494.044 241.813 494.349 242.705 494.997 243.207 496.234 244.018 497.02 248.644 501.503 254.506 504.599 259.453 508.593 263.345 511.736 267.265 515.517 271.212 518.386 274.69 520.913 279.051 523.183 282.237 526.398 286.116 530.313 290.444 534.559 293.996 538.861 296.889 542.365 294.027 540.67 296.936 543.312 297.375 543.711 298.019 543.733 298.406 544.203 298.822 544.706 299.329 547.1 299.876 547.764 300.501 548.52 301.391 548.876 302.081 549.544 304.605 551.989 305.654 555.652 307.961 558.446 308.348 558.916 309.043 558.867 309.431 559.337 309.979 560 309.701 561.257 310.166 562.007 312.694 566.09 313.65 568.886 315.311 573.581 316.418 576.71 318.269 579.012 318.986 582.483 320.323 588.963 319.145 585.132 320.455 592.276 321.057 595.557 322.2 598.724 322.66 602.068 323.095 605.224 322.143 608.725 322.66 611.861 322.728 612.272 323.311 612.344 323.395 612.751 323.987 615.616 323.535 618.77 324.13 621.653 324.672 624.279 324.13 627.835 324.13 630.556 324.13 640.217 323.131 650.96 325.6 659.934 325.896 661.01 325.943 665.691 326.335 666.165 327.066 667.05 328.715 668.157 330.01 669.726 330.823 670.711 331.652 672.605 332.215 673.287 332.46 673.584 334.175 673.881 334.42 674.177 334.807 674.647 334.768 675.489 335.155 675.958 335.824 676.769 342 680.109 343.24 680.409 354.472 683.13 365.582 683.97 377.048 683.97 380.462 683.97 384.715 684.783 388.073 683.97 389.965 683.512 392.043 681.96 393.953 681.299 395.154 680.884 399.521 680.364 400.568 679.519 401.023 679.151 400.915 678.208 401.302 677.738 401.85 677.075 402.888 677.411 403.507 676.848 403.997 676.255 404.487 675.661 404.977 675.068 404.977 674.771 404.804 674.387 404.977 674.177 405.365 673.708 406.143 673.839 406.447 673.287 406.719 672.793 406.292 672.07 406.447 671.507 406.763 670.36 408.337 669.092 408.652 667.946 409.235 665.826 408.807 662.932 409.387 660.824 409.667 659.809 410.578 659.168 410.857 658.153 411.607 655.428 410.416 652.989 411.592 650.141 414.171 643.895 417.93 638.181 421.147 632.336 421.723 631.289 423.023 630.86 423.352 629.665 423.507 629.102 423.133 628.416 423.352 627.885 424.551 624.979 423.746 632.205 424.822 626.995 425 626.131 424.677 625.197 424.822 624.324 425.205 622.001 425.99 621.757 427.027 619.873 427.434 619.132 426.794 618.047 427.027 617.202 428.108 613.273 430.019 608.215 432.171 604.739 432.77 603.773 433.953 603.47 434.376 602.958 434.549 602.749 434.203 602.278 434.376 602.068 437.282 598.548 450.957 600.288 455.69 600.288 465.49 600.288 475.29 600.288 485.089 600.288 492.68 600.288 500.352 600.799 507.874 599.397 514.577 598.148 520.955 595.691 527.718 594.946 535.642 594.074 543.998 594.946 551.972 594.946 554.876 594.946 564.844 593.839 566.671 594.946 571.074 597.613 573.465 594.826 576.961 601.178 577.258 601.717 579.151 602.921 579.166 602.958 579.495 603.755 578.758 604.888 579.166 605.629 579.55 606.327 580.326 606.659 580.636 607.41 580.855 607.94 580.517 608.614 580.636 609.19 581.327 612.539 582.446 618.027 583.576 620.763 584.16 622.178 583.162 624.6 583.576 626.105 583.922 627.364 584.699 628.406 585.046 629.665 585.413 631.001 584.678 632.781 585.046 634.117 585.155 634.515 585.536 634.71 585.781 635.007 586.026 635.897 586.364 636.757 586.516 637.678 586.66 638.551 586.283 639.504 586.516 640.348 587.266 643.074 588.763 645.844 589.456 648.36 589.61 648.924 589.237 649.61 589.456 650.141 589.565 650.406 590.055 649.894 590.191 650.141 591.117 651.823 591.529 654.798 592.396 656.373 595.662 662.308 597.992 669.212 601.215 675.068 601.46 675.364 601.705 675.661 601.95 675.958 602.195 675.958 602.512 675.748 602.685 675.958 603.316 676.722 603.088 678.872 604.155 679.519 608.819 682.343 613.245 679.628 617.385 681.299 617.713 681.432 617.81 682.002 618.12 682.19 619.089 682.776 647.959 682.501 648.988 682.19 650.051 681.868 650.865 680.731 651.928 680.409 653.117 680.049 654.395 680.653 655.603 680.409 657.576 680.011 659.504 678.971 661.483 678.629 662.938 678.377 664.498 679.192 665.893 678.629 666.55 678.363 666.743 677.223 667.363 676.848 668.395 676.223 670.59 675.784 671.773 675.068 671.94 674.966 681.169 661.982 681.327 661.714 681.964 660.634 682.16 659.233 682.797 658.153 683.953 656.193 686.096 654.83 687.207 652.812 688.744 650.019 689.459 646.352 690.147 643.019 689.704 641.408 691.338 641.363 691.617 640.348 691.772 639.785 691.398 639.099 691.617 638.568 691.927 637.817 692.829 637.567 693.087 636.787 693.36 635.961 692.885 634.973 693.087 634.117 694.378 628.641 697.662 623.623 698.967 618.092 700.708 610.709 702.231 604.359 703.376 596.727 703.85 593.569 702.857 590.081 703.376 586.934 703.444 586.523 704.054 586.458 704.111 586.044 705.026 579.396 703.324 572.243 704.111 565.568 704.16 565.153 704.737 565.076 704.846 564.678 705.245 563.23 705.264 560.872 705.581 559.337 706.168 556.494 705.548 553.224 706.316 550.434 706.535 549.638 707.476 549.405 707.786 548.654 709.167 545.308 711.432 541.604 712.931 537.971 713.041 537.706 712.931 537.378 712.931 537.081 713.176 536.487 713.362 535.852 713.666 535.3 715.126 532.647 713.519 536.309 715.871 534.41 716.327 534.042 716.219 533.099 716.606 532.63 717.054 532.087 720.997 528.193 721.016 528.178 722.918 526.642 725.757 526.433 727.631 524.617 728.442 523.831 728.944 522.594 729.835 521.947 730.256 521.641 730.85 522.167 731.305 521.947 732.951 521.149 735.654 519.623 737.185 518.386 741.241 515.111 744.88 510.986 748.945 507.703 750.43 506.503 752.987 504.921 754.09 503.252 754.574 502.519 754.36 501.332 754.825 500.581 755.153 500.05 755.907 500.16 756.294 499.691 757.662 498.035 759.166 494.432 760.704 492.569 762.883 489.929 766.874 487.766 768.789 485.447 769.998 483.983 770.795 481.802 771.729 480.106 772.832 478.102 775.152 475.467 776.139 473.874 779.817 467.933 782.793 460.472 787.163 455.179 787.337 454.969 787.725 455.389 787.898 455.179 788.352 454.63 789.126 451.241 789.368 450.728 790.414 448.511 791.779 446.538 793.043 444.496 797.977 436.527 810.739 428.438 818.032 424.021 818.471 423.755 819.064 424.286 819.502 424.021 820.145 423.631 825.245 420.626 826.117 419.569 826.29 419.36 825.944 418.889 826.117 418.679 827.526 416.972 830.284 415.705 831.262 413.338 833.366 408.241 838.076 403.27 843.021 400.874 850.157 397.417 856.818 393.183 864.336 391.082 868.174 390.009 872.335 389.55 876.095 388.411 877.643 387.942 878.989 386.352 880.505 385.74 882.422 384.967 884.578 385.054 886.385 383.96 889.427 382.117 896.263 371.637 897.409 367.936 898.342 364.924 898.815 361.939 899.614 359.033 901.015 353.944 899.755 364.415 901.084 356.363 901.324 354.908 900.787 353.351 901.084 351.911 901.298 350.873 902.409 350.296 902.554 349.241 903.347 343.482 901.138 332.132 902.554 326.985 903.399 323.916 903.289 326.325 903.289 324.314 903.289 320.769 902.714 316.225 903.289 312.741 903.639 310.622 904.507 308.648 904.759 306.509 905.234 302.485 904.522 300.509 904.759 298.497 906.325 285.221 909.073 252.687 906.229 240.632 904.898 234.988 898.666 236.562 895.204 236.18 884.745 235.029 874.329 227.544 865.07 221.937 857.378 217.278 843.06 208.051 837.877 199.681 835.072 195.151 833.631 190.22 831.262 185.437 825.774 174.359 820.757 162.784 816.562 150.718 815.87 148.727 815.733 146.502 815.092 144.486 813.912 140.77 811.977 137.462 810.682 133.803 810.421 133.065 810.978 131.848 810.682 131.132 809.267 127.704 801.52 121.815 798.923 118.669 796.231 115.408 793.994 111.607 790.838 108.876 789.947 108.105 788.856 107.74 787.898 107.096 785.526 105.5 777.272 98.713 774.669 99.9741 770.689 101.902 763.422 111.196 761.439 115.998 759.776 120.027 758.616 124.609 755.56 127.571 751.719 131.293 746.859 133.687 743.065 137.364 740.288 140.055 737.494 143.409 734.245 145.376 730.716 147.513 726.815 148.195 723.221 149.827 722.394 150.203 721.865 151.314 721.016 151.608 720.074 151.934 719.046 151.44 718.076 151.608 715.608 152.035 713.176 153.685 710.726 154.279 703.985 155.912 689.034 153.739 682.797 150.718 679.418 149.08 676.776 144.666 673.243 143.596 670.787 142.852 669.109 141.323 666.628 140.035 663.375 138.346 659.915 136.385 657.073 133.803 656.583 133.21 656.093 132.616 655.603 132.023 655.603 131.726 655.776 131.342 655.603 131.132 655.18 130.62 653.997 130.318 653.398 129.352 652.194 127.408 651.63 125.013 650.458 123.12 650.043 122.449 649.298 122.091 648.988 121.34 648.769 120.809 649.208 120.09 648.988 119.559 648.287 117.86 646.919 116.689 646.049 115.108 643.423 110.338 641.219 106.271 639.434 100.864 638.396 97.7229 638.232 94.2296 637.229 91.0717 631.196 72.0742 639.284 102.099 632.819 78.6084 632.5 77.4477 632.329 76.2344 632.084 75.0474 631.594 72.9702 631.208 70.853 630.614 68.8158 628.447 61.3776 627.875 62.0187 626.939 56.3525 626.153 51.5929 627.3 46.0234 626.939 41.2184 626.505 35.4326 624.592 30.0433 623.999 24.3039 623.461 19.0868 623.699 13.5472 623.264 8.27965 622.977 4.79507 624.373-9.29198 623.264-11.3056 622.88-12.0039 622.179-12.3877 621.794-13.0861 620.78-14.9295 624.173-13.0633 621.059-15.7568 614.849-21.1298 618.731-16.7219 614.445-19.3177 613.655-19.7962 613.078-20.7599 612.24-21.0982 609.451-22.2244 605.586-20.5962 602.685-21.0982 601.347-21.3298 597.36-23.6597 596.07-22.8787 593.499-21.3214 592.834-18.0678 590.926-15.7568 590.538-15.2876 589.843-15.3357 589.456-14.8666 585.563-10.1516 582.007-4.97422 577.696-0.622746 576.755 0.327126 575.553 0.921436 574.756 2.04798 574.043 3.05558 574.061 4.67053 573.286 5.60892 572.276 6.83244 570.754 7.24146 569.611 8.27965 564.096 13.2901 559.152 19.6929 553.442 24.3039 551.753 25.6674 553.757 24.8124 551.972 26.9746 548.776 30.846 544.112 33.3339 540.212 35.877 529.463 42.888 518.461 48.0902 506.404 51.011 505.202 51.302 503.937 50.7671 502.729 51.011 493.839 52.8057 511.427 51.1053 496.114 52.7915 491.044 53.3498 485.71 52.9649 480.68 53.6818 478.673 53.9677 476.8 55.1162 474.8 55.4622 471.404 56.0498 467.914 54.9469 464.51 55.4622 462.506 55.7657 460.618 56.805 458.63 57.2427 455.421 57.9495 451.54 56.9446 448.341 57.2427 444.886 57.5646 441.506 58.7013 438.051 59.0232 431.999 59.5871 425.754 59.0232 419.677 59.0232 412.738 59.0232 405.999 58.8295 399.098 58.1329 395.773 57.7974 392.827 58.5689 389.543 57.2427 388.504 56.823 387.657 55.8268 386.603 55.4622 385.896 55.2177 385.133 55.4622 384.398 55.4622 382.928 55.1655 381.384 55.2058 379.988 54.572 379.339 54.2773 379.095 53.2571 378.518 52.7915 378.314 52.6269 378.028 52.7915 377.783 52.7915 377.048 52.198 376.203 51.7676 375.578 51.011 373.874 48.947 371.815 45.5086 370.434 42.9989 370.004 42.2181 370.246 40.9917 369.699 40.3282 369.525 40.1184 369.183 40.4609 368.964 40.3282 367.966 39.7237 366.821 37.5394 366.024 36.7672 362.019 32.8869 356.51 29.9697 352.059 26.9746 345.948 22.8619 338.66 19.1225 332.95 14.5113 330.045 12.1658 329.315 7.43825 327.07 4.71869 324.464 1.56166 324.13 6.0252 324.13-1.51298Z" id="path3425" stroke="#000000" stroke-width="1.84686" fill="none"/></clipPath></defs><g id="g15"><g id="g1469" clip-path="url(#clipPath3423)" transform="matrix(0.595915 0 0 0.498029 -39.8606 164.863)"><rect x="0" y="0" width="195.313%" height="117.188%" id="rect1457" stroke-width="1.51288" fill="#005EB8"/><path d="M0 0 1000 600M0 600 1000 0" id="path1459" stroke="#FFFFFF" stroke-width="120"/></g><path d="M174.686 195.066 174.686 196.066C169.751 197.644 162.685 198.415 159.004 202.344 155.11 206.499 157.17 212.912 162.701 214.088 172.029 216.073 187.099 208.39 196.686 206.82 217.707 203.377 238.61 203.363 259.686 206.351 268.986 207.67 290.185 217.968 298.538 213.038 311.961 205.115 288.516 197.437 283.686 196.066L304.258 179.062 315.776 166.843 328.686 169.066C319.973 194.805 327.058 229.33 350.686 244.626 375.636 260.778 417.619 259.03 425.686 225.066 441.066 236.863 443.129 256.719 452.681 272.066 461.959 286.974 487.763 281.659 494.596 297.081 496.893 302.263 495.686 309.519 495.686 315.066 495.686 322.858 497.963 335.025 494.113 342.026 485.942 356.889 458.369 353.933 445.701 363.623 433.986 372.585 426.551 389.454 415.686 400.051 403.778 411.667 387.819 417.587 375.819 428.456 371.417 432.443 371.102 438.587 370.075 444.066 368.013 455.068 365.644 466.032 363.767 477.066 362.884 482.259 362.826 493.069 356.631 494.748 350.091 496.521 323.538 497.916 319.674 491.918 312.784 481.219 319.81 459.297 306.671 452.523 299.135 448.637 285.832 453.121 277.686 453.896 258.762 455.697 240.534 453.511 221.686 453.081 197.671 452.532 209.677 479.98 199.748 492.632 195.807 497.654 181.441 495.066 175.686 495.066 171.613 495.066 165.483 496.171 161.83 494.038 157.02 491.23 156.793 481.988 155.936 477.066 153.813 464.869 153.478 444.564 146.678 434.159 143.041 428.596 135.089 425.642 129.686 422.062 120.164 415.753 111.561 408.427 103.776 400.066 71.6974 365.615 63.0096 313.881 74.1614 269.066 81.3706 240.095 98.0066 215.412 121.686 197.302 127.033 193.213 155.963 180.135 148.894 171.089 141.846 162.07 112.216 184.855 106.686 189.505 89.0665 204.323 75.3207 222.776 66.5472 244.066 62.5466 253.774 61.8918 273.037 54.6861 280.066 54.556 273.765 53.3003 267.708 50.4122 262.066 48.2699 257.881 45.2623 254.325 41.6853 251.279 17.5213 230.703-11.929 272.192 18.6861 286.746 24.0995 289.319 29.8385 290.859 35.6861 292.066 30.5269 297.955 25.1993 303.54 17.6861 306.356 12.9816 308.12 5.88795 307.796 1.91445 310.808-9.86837 319.74 8.83966 324.836 15.6861 323.601 25.3438 321.86 34.7446 316.089 41.3967 308.976 45.8766 304.187 48.7513 296.187 55.6861 295.066 50.4044 336.858 65.6557 382.675 94.7255 413.066 102.248 420.931 110.702 427.751 119.686 433.872 124.129 436.898 130.814 439.5 133.748 444.17 144.514 461.306 133.113 505.068 159.686 509.737 173.468 512.159 204.453 514.416 212.843 501.062 217.17 494.174 215.131 471.806 222.833 468.684 228.089 466.554 238.83 469.066 244.686 469.066 262.488 469.066 281.241 470.231 298.686 466.066 301.608 477.361 300.996 495.002 309.026 503.961 318.067 514.047 349.355 512.32 361.686 509.382 366.148 508.319 369.991 505.874 372.553 502.026 380.5 490.087 380.31 468.965 383.086 455.066 384.008 450.447 384.125 443.297 387.275 439.595 394.444 431.169 408.89 425.959 417.686 418.805 431.991 407.17 441.347 393.427 452.447 379.085 466.556 360.853 501.173 372.01 509.246 345.066 514.452 327.692 514.914 291.524 499.682 279.456 490.569 272.236 476.182 273.565 467.794 265.838 461.228 259.791 459.565 247.861 455.377 240.066 449.341 228.833 437.995 219.243 432.904 208.066 430.614 203.037 433.948 195.333 434.52 190.066 436.187 174.728 441.142 140.91 424.646 131.635 415.901 126.718 403.719 130.381 394.686 132.696 370.605 138.866 346.316 158.441 321.686 152.066 327.028 142.035 330.208 129.438 330.646 118.066 330.851 112.728 329.481 106.506 322.69 107.338 316.116 108.144 316.077 114.943 315.52 120.066 314.066 133.442 308.973 147.035 301.246 158.066 292.178 171.013 275.486 188.708 258.686 190.838 248.193 192.169 236.38 188.943 225.686 189.07 216.934 189.174 206.187 192.648 197.686 190.277 186.134 187.054 175.942 178.348 167.687 170.066 116.284 118.497 151.302 30.0564 222.686 23.2357 245.896 21.018 270.892 30.0674 287.686 46.1053 294.648 52.7542 299.991 60.0719 305.276 68.0621 307.402 71.2751 310.251 75.2551 314.681 74.5235 322.19 73.2834 320.866 64.8991 318.243 60.0659 311.563 47.756 301.896 36.8862 290.686 28.5443 245.154-5.33843 177.664 4.71391 145.432 52.0659 116.201 95.0102 123.132 170.569 174.686 195.066M228.686 63.0659C209.982 64.5956 195.025 85.5243 209.026 102.026 213.562 107.372 225.541 109.176 228.083 115.199 231.248 122.7 228.686 135.948 228.686 144.066 221.933 142.654 212.973 133.547 206.78 134.493 200.034 135.522 201.611 144.346 204.914 147.881 210.977 154.369 220.243 156.043 228.686 156.066 228.969 164.704 236.404 164.662 236.686 156.066 268.205 151.801 267.395 107.54 236.686 102.066L236.686 75.0659C241.877 75.3323 248.716 80.1012 253.627 78.4193 258.151 76.8701 258.595 70.7246 255.368 67.7148 250.717 63.3768 242.643 63.0823 236.686 63.0659 236.089 55.2456 229.283 55.2456 228.686 63.0659M229.686 75.0659 229.686 99.0659C216.312 93.7946 211.453 76.9335 229.686 75.0659M235.686 143.066 235.686 116.066C249.353 120.433 252.414 141.248 235.686 143.066M410.685 144.356C423.579 142.761 421.307 163.482 420.882 172.066 419.771 194.496 418.045 236.084 389.686 239.777 359.323 243.73 340.684 218.688 340.686 191.066 340.686 184.629 340.336 175.9 343.965 170.254 347.391 164.924 356.108 162.735 361.686 160.463 377.368 154.074 393.697 146.458 410.685 144.356M39.6861 278.066C36.6409 277.436 33.6371 276.704 30.6861 275.71 24.4215 273.6 12.9673 261.884 26.6869 260.598 35.0135 259.817 39.1263 271.694 39.6861 278.066M383.819 275.095C376.457 279.273 381.149 291.161 385.076 296.051 392.359 305.118 406.495 308.397 416.686 302.071 422.877 298.229 427.521 291.358 428.37 284.066 428.972 278.887 425.659 273.125 419.701 274.403 411.326 276.2 414.375 291.158 403.686 290.153 394.537 289.293 394.497 269.035 383.819 275.095Z" id="path573" fill="#050505"/></g></svg>